<svg xmlns="http://www.w3.org/2000/svg" width="222" height="40" fill="none" xmlns:v="https://vecta.io/nano"><g clip-path="url(#B)"><g clip-path="url(#C)" fill-rule="evenodd"><g fill="#0073b9"><path d="M39.857 0v39.861H-.004V0h39.861zM26.243 23.413h-6.457l4.136 7.041h6.681l-4.359-7.041zm-9.001.001h-6.041v4.968h6.041v-4.968zM11.201 9.479v12.338h9.492l.286-.001c2.795-.017 3.695-.291 4.4-.592 2.53-1.064 3.289-3.935 3.289-5.576 0-1.627-.759-4.497-3.288-5.576-.708-.309-2.287-.566-4.357-.59l-.331-.002-9.491-.001zm8.675 3.922c1.025.009 2.781.152 2.781 2.203v.059l-.005.184c-.107 1.964-1.943 2.019-2.911 1.99h-2.499V13.4h2.634z"/></g><path d="M153.706 4.983c4.763 0 8.52 1.232 11.61 3.566l.353.274-4.022 5.649c-2.658-1.855-5.564-2.847-8.131-2.847-1.864 0-2.818.758-2.901 1.715l-.005.138v.088c0 1.313.997 1.897 5.019 2.802 6.545 1.416 10.666 3.505 10.829 8.686l.004.321v.088c0 5.896-4.697 9.415-11.758 9.415-4.96.014-9.701-1.495-13.233-4.451l-.374-.322.001-.001 4.476-5.328c2.862 2.262 6.062 3.475 9.423 3.475 2.064 0 3.216-.681 3.312-1.827l.006-.159v-.085c0-1.198-.954-1.855-4.903-2.775-6.077-1.375-10.783-3.072-10.959-8.747l-.005-.332v-.088c0-5.371 4.271-9.255 11.258-9.255zm-37.122.496l6.944 11.197 6.928-11.197h8.512v28.916h-8.013V17.784l-7.427 11.327h-.177l-7.383-11.239v16.523h-4.961l-2.936-6.831V5.478h8.513zm-21.797-.204l12.374 29.12h-8.63l-2.115-5.167H85.202l-2.07 5.167h-2.377l-3.773-5.488L87.022 5.275h7.765zm105.963.204l5.975 10.54 6.018-10.54h9.012l-11.052 17.969v10.948h-8.088V23.579l-11.053-18.1h9.188zm-13.226 0l4.139 6.817h-14.457v4.379h12.756v6.32h-12.756v4.584h14.84v6.816h-22.81V5.478h18.288zm-123.928 0c4.447 0 7.515 1.154 9.467 3.138 1.618 1.568 2.481 3.661 2.563 6.308l.007.423v.087c0 4.289-2.222 7.178-5.649 8.733l-.325.142 6.943 10.072h-9.307l-5.856-8.758h-3.523v8.758h-8.059V5.478h13.74zm27.243 9.298l-3.274 8.219h6.517l-3.243-8.219zm-27.654-2.364h-5.27v6.934h5.314v.015c2.65 0 4.205-1.238 4.309-3.215l.006-.215v-.088c0-2.262-1.659-3.43-4.359-3.43z" fill="url(#A)"/></g></g><defs><linearGradient id="A" x1="58.369" y1="19.478" x2="150.449" y2="48.499" gradientUnits="userSpaceOnUse"><stop stop-color="#0073b9"/><stop offset="1" stop-color="#0091d9"/></linearGradient><clipPath id="B"><path fill="#fff" d="M0 0h222v40H0z"/></clipPath><clipPath id="C"><path fill="#fff" transform="translate(-.004)" d="M0 0h222v40H0z"/></clipPath></defs></svg>